<svg width="140" height="50" viewBox="0 0 140 50" fill="none" xmlns="http://www.w3.org/2000/svg">
<g clip-path="url(#clip0_2753_5850)">
<path d="M16.2233 6.25H0.978516V42.7083L16.2233 6.25Z" fill="#E6E6E6"/>
<path d="M26.9492 6.25H42.1741V42.7083L26.9492 6.25Z" fill="#E6E6E6"/>
<path d="M21.5859 19.6875L31.2889 42.7086H24.9228L22.0229 35.3792H14.9219L21.5859 19.6875Z" fill="#E6E6E6"/>
<path d="M67.0454 29.4343L68.843 34.5887C68.9026 34.7178 68.992 34.7774 69.1509 34.7774H72.607C72.7957 34.7774 72.8255 34.688 72.7957 34.4993L65.655 14.6662C65.6252 14.5073 65.5954 14.4775 65.4365 14.4775H61.1461C61.027 14.4775 60.9574 14.5669 60.9574 14.696C60.8979 15.7388 60.8085 16.0566 60.6794 16.3645L54.3133 34.4695C54.2835 34.688 54.353 34.7774 54.5318 34.7774H57.6205C57.8092 34.7774 57.8986 34.7178 57.9681 34.5291L59.6664 29.4343H67.0454ZM60.6496 26.0675C61.5831 23.247 62.8146 19.632 63.3112 17.5662H63.341C63.9568 19.7313 65.4067 24.0217 66.0622 26.0675H60.6496Z" fill="#E6E6E6"/>
<path d="M81.9757 35.0843C83.8329 35.0843 85.8093 34.7467 87.8154 33.8826C87.9743 33.823 88.0041 33.7535 88.0041 33.6046C87.9445 33.0484 87.875 32.244 87.875 31.6282V12.9571C87.875 12.8379 87.875 12.7783 87.7261 12.7783H84.3593C84.2302 12.7783 84.1706 12.8379 84.1706 12.9968V19.3231C83.6442 19.2636 83.2768 19.2338 82.8398 19.2338C77.4073 19.2338 74.0703 22.819 74.0703 27.2981C74.0703 32.4922 77.4967 35.0843 81.9757 35.0843ZM84.1706 31.6282C83.6144 31.807 82.9987 31.8765 82.373 31.8765C79.91 31.8765 77.8939 30.4861 77.8939 27.1094C77.8939 24.12 79.9696 22.3522 82.7206 22.3522C83.2768 22.3522 83.7634 22.4118 84.1706 22.5707V31.6282Z" fill="#E6E6E6"/>
<path d="M98.7425 19.2334C94.1046 19.2334 91.2344 22.7889 91.2344 27.1786C91.2344 31.1015 93.5186 35.084 98.673 35.084C103.033 35.084 106.092 31.8761 106.092 27.0792C106.092 22.8484 103.5 19.2334 98.7425 19.2334ZM98.5538 22.3519C101.176 22.3519 102.288 24.6063 102.288 27.1786C102.288 30.3566 100.649 31.9357 98.7425 31.9357C96.3888 31.9357 94.9984 29.9594 94.9984 27.109C94.9984 24.1793 96.4782 22.3519 98.5538 22.3519Z" fill="#E6E6E6"/>
<path d="M109.574 12.7783C109.445 12.7783 109.355 12.8379 109.355 12.9968V34.1309C109.355 34.2203 109.445 34.3792 109.574 34.409C111.054 34.8659 112.603 35.0843 114.202 35.0843C118.78 35.0843 123.23 32.244 123.23 26.5234C123.23 22.382 120.389 19.2338 115.94 19.2338C114.917 19.2338 113.964 19.3927 113.129 19.6707L113.09 13.0266C113.09 12.8081 113.03 12.7783 112.812 12.7783H109.574ZM119.426 26.9008C119.426 30.3272 117.082 31.9361 114.55 31.9361C114.023 31.9361 113.556 31.9063 113.129 31.7772V22.7594C113.616 22.5707 114.202 22.4118 115.285 22.4118C117.728 22.4118 119.426 23.9611 119.426 26.9008Z" fill="#E6E6E6"/>
<path d="M135.795 28.0128C137.304 28.0128 138.546 27.983 138.973 27.8837C139.132 27.8539 139.191 27.7943 139.221 27.6652C139.31 27.3275 139.35 26.6224 139.35 25.7584C139.35 22.8187 137.582 19.2334 133.014 19.2334C128.346 19.2334 125.754 23.0371 125.754 27.3275C125.754 31.1313 127.76 35.084 133.381 35.084C135.487 35.084 136.847 34.7463 138.019 34.1902C138.138 34.1306 138.198 34.0313 138.198 33.8525V31.2802C138.198 31.1313 138.109 31.1015 138.019 31.1611C136.847 31.6576 135.576 31.9059 134.186 31.9059C131.037 31.9059 129.607 30.1679 129.518 28.0128H135.795ZM129.518 25.3512C129.766 23.8416 130.72 22.2029 132.855 22.2029C135.209 22.2029 135.824 24.1793 135.824 25.0731C135.824 25.1029 135.824 25.232 135.824 25.3214C135.695 25.3512 135.298 25.3512 134.126 25.3512H129.518Z" fill="#E6E6E6"/>
</g>
<defs>
<clipPath id="clip0_2753_5850">
<rect width="138.542" height="50" fill="white" transform="translate(0.978516)"/>
</clipPath>
</defs>
</svg>
