<svg width="116" height="50" viewBox="0 0 116 50" fill="none" xmlns="http://www.w3.org/2000/svg">
<g clip-path="url(#clip0_2753_5846)">
<path fill-rule="evenodd" clip-rule="evenodd" d="M71.2232 39.3812C64.5945 44.2671 54.9866 46.8739 46.7143 46.8739C35.1153 46.8739 24.6733 42.5838 16.7734 35.4486C16.1528 34.8876 16.7089 34.1229 17.4537 34.5598C25.9791 39.5202 36.5205 42.5044 47.4095 42.5044C54.7532 42.5044 62.8318 40.985 70.2599 37.832C71.3821 37.3553 72.3205 38.5669 71.2232 39.3812Z" fill="#E6E6E6"/>
<path fill-rule="evenodd" clip-rule="evenodd" d="M73.979 36.2282C73.1349 35.1458 68.3782 35.7168 66.2431 35.97C65.5926 36.0495 65.4933 35.4834 66.0792 35.0763C69.8678 32.4099 76.0843 33.1795 76.8093 34.0733C77.5342 34.972 76.6206 41.2035 73.0605 44.1777C72.5143 44.6345 71.9929 44.3912 72.2362 43.7855C73.0356 41.7894 74.8281 37.3156 73.979 36.2282Z" fill="#E6E6E6"/>
<path fill-rule="evenodd" clip-rule="evenodd" d="M66.3937 16.2538V13.6619C66.3937 13.2696 66.6916 13.0065 67.0491 13.0065H78.6531C79.0255 13.0065 79.3234 13.2746 79.3234 13.6619V15.8814C79.3184 16.2538 79.0056 16.7404 78.4495 17.51L72.4365 26.0951C74.6709 26.0405 77.0294 26.3731 79.0553 27.5152C79.5121 27.7733 79.6362 28.1507 79.671 28.5231V31.2888C79.671 31.6662 79.2539 32.1081 78.8169 31.8797C75.2468 30.0077 70.505 29.8042 66.5575 31.8995C66.1553 32.118 65.7333 31.6811 65.7333 31.3037V28.677C65.7333 28.255 65.7382 27.535 66.1603 26.8945L73.1267 16.9042H67.064C66.6916 16.9042 66.3937 16.6411 66.3937 16.2538Z" fill="#E6E6E6"/>
<path fill-rule="evenodd" clip-rule="evenodd" d="M24.0642 32.4259H20.5339C20.1962 32.4011 19.9281 32.1478 19.9033 31.8251V13.7066C19.9033 13.3441 20.2061 13.0562 20.5835 13.0562H23.8755C24.2181 13.071 24.4912 13.3342 24.5161 13.6619V16.0304H24.5806C25.4396 13.7414 27.0533 12.6738 29.2281 12.6738C31.4377 12.6738 32.8181 13.7414 33.8111 16.0304C34.6652 13.7414 36.6066 12.6738 38.6871 12.6738C40.1668 12.6738 41.7855 13.2846 42.7736 14.655C43.8908 16.1793 43.6624 18.3939 43.6624 20.3353L43.6574 31.7705C43.6574 32.1329 43.3545 32.4259 42.9771 32.4259H39.4518C39.0992 32.4011 38.8162 32.118 38.8162 31.7705V22.1675C38.8162 21.4029 38.8857 19.4962 38.7169 18.7712C38.4537 17.5547 37.6642 17.2121 36.6414 17.2121C35.7873 17.2121 34.8936 17.7831 34.5311 18.6968C34.1687 19.6104 34.2034 21.1397 34.2034 22.1675V31.7705C34.2034 32.1329 33.9005 32.4259 33.5232 32.4259H29.9978C29.6403 32.4011 29.3622 32.118 29.3622 31.7705L29.3573 22.1675C29.3573 20.1466 29.6899 17.1724 27.1824 17.1724C24.6452 17.1724 24.7445 20.0722 24.7445 22.1675V31.7705C24.7445 32.1329 24.4416 32.4259 24.0642 32.4259Z" fill="#E6E6E6"/>
<path fill-rule="evenodd" clip-rule="evenodd" d="M89.3135 12.6738C94.5519 12.6738 97.3871 17.1724 97.3871 22.8925C97.3871 28.4189 94.254 32.8033 89.3135 32.8033C84.1694 32.8033 81.369 28.3047 81.369 22.6988C81.369 17.0582 84.2042 12.6738 89.3135 12.6738ZM89.3433 16.373C86.7414 16.373 86.5776 19.9182 86.5776 22.1278C86.5776 24.3423 86.5428 29.0693 89.3135 29.0693C92.0494 29.0693 92.1785 25.256 92.1785 22.9322C92.1785 21.4029 92.1139 19.5756 91.6522 18.1258C91.2549 16.8646 90.4654 16.373 89.3433 16.373Z" fill="#E6E6E6"/>
<path fill-rule="evenodd" clip-rule="evenodd" d="M104.18 32.4259H100.664C100.312 32.4011 100.029 32.118 100.029 31.7705L100.024 13.647C100.054 13.3143 100.347 13.0562 100.704 13.0562H103.976C104.284 13.071 104.537 13.2796 104.607 13.5626V16.3333H104.671C105.659 13.8556 107.045 12.6738 109.483 12.6738C111.067 12.6738 112.611 13.2448 113.604 14.8089C114.528 16.2588 114.528 18.6968 114.528 20.4495V31.8549C114.488 32.1727 114.195 32.4259 113.847 32.4259H110.307C109.984 32.4011 109.716 32.1627 109.681 31.8549V22.0136C109.681 20.0324 109.91 17.1327 107.472 17.1327C106.613 17.1327 105.823 17.7087 105.431 18.5826C104.935 19.6898 104.87 20.7921 104.87 22.0136V31.7705C104.865 32.1329 104.557 32.4259 104.18 32.4259Z" fill="#E6E6E6"/>
<path fill-rule="evenodd" clip-rule="evenodd" d="M57.1433 23.7713C57.1433 25.1467 57.178 26.2937 56.4829 27.5152C55.9218 28.5082 55.0281 29.119 54.04 29.119C52.6844 29.119 51.89 28.0862 51.89 26.5618C51.89 23.5528 54.5861 23.0066 57.1433 23.0066V23.7713ZM60.7034 32.3762C60.4701 32.5848 60.1324 32.5997 59.8693 32.4606C58.6974 31.4874 58.4839 31.0356 57.8434 30.1071C55.9069 32.0833 54.5315 32.6741 52.024 32.6741C49.0498 32.6741 46.7409 30.8419 46.7409 27.1726C46.7409 24.3076 48.2901 22.3562 50.5046 21.4028C52.4213 20.5587 55.0976 20.4098 57.1433 20.1764V19.7196C57.1433 18.8804 57.2078 17.8874 56.7113 17.1624C56.2843 16.512 55.46 16.2439 54.7301 16.2439C53.3845 16.2439 52.1879 16.934 51.8949 18.3641C51.8354 18.6818 51.602 18.9947 51.2792 19.0095L47.8581 18.6421C47.5701 18.5776 47.2474 18.3442 47.3318 17.9023C48.1163 13.7513 51.8701 12.5 55.2267 12.5C56.9447 12.5 59.189 12.9568 60.5445 14.2577C62.2625 15.8615 62.0987 18.0016 62.0987 20.3303V25.8319C62.0987 27.4854 62.7839 28.2103 63.4294 29.1041C63.6528 29.4218 63.7025 29.8042 63.4145 30.0425C62.6945 30.6433 61.4135 31.7605 60.7084 32.3861L60.7034 32.3762Z" fill="#E6E6E6"/>
<path fill-rule="evenodd" clip-rule="evenodd" d="M10.8613 23.7713C10.8613 25.1467 10.8961 26.2937 10.201 27.5151C9.63987 28.5082 8.75108 29.1189 7.75801 29.1189C6.40248 29.1189 5.61299 28.0862 5.61299 26.5618C5.61299 23.5528 8.30916 23.0066 10.8613 23.0066V23.7713ZM14.4215 32.3762C14.1881 32.5847 13.8505 32.5996 13.5873 32.4606C12.4155 31.4874 12.2069 31.0356 11.5615 30.107C9.62498 32.0832 8.25455 32.6741 5.74209 32.6741C2.77282 32.6741 0.458984 30.8419 0.458984 27.1725C0.458984 24.3075 2.01313 22.3562 4.2227 21.4028C6.13932 20.5587 8.81563 20.4098 10.8613 20.1764V19.7196C10.8613 18.8804 10.9259 17.8874 10.4343 17.1624C10.0023 16.512 9.1781 16.2439 8.45316 16.2439C7.10756 16.2439 5.90595 16.934 5.61299 18.364C5.55341 18.6818 5.32004 18.9946 5.00226 19.0095L1.57618 18.6421C1.28819 18.5776 0.970412 18.3442 1.04986 17.9023C1.83934 13.7513 5.58816 12.5 8.94473 12.5C10.6627 12.5 12.9071 12.9568 14.2626 14.2577C15.9806 15.8615 15.8167 18.0016 15.8167 20.3303V25.8319C15.8167 27.4854 16.502 28.2103 17.1474 29.1041C17.3759 29.4218 17.4255 29.8042 17.1375 30.0425C16.4175 30.6433 15.1365 31.7605 14.4314 32.3861L14.4215 32.3762Z" fill="#E6E6E6"/>
</g>
<defs>
<clipPath id="clip0_2753_5846">
<rect width="114.583" height="50" fill="white" transform="translate(0.458984)"/>
</clipPath>
</defs>
</svg>
