<svg width="174" height="173" viewBox="0 0 174 173" fill="none" xmlns="http://www.w3.org/2000/svg">
<rect x="1.5" y="1" width="171" height="171" rx="85.5" fill="url(#paint0_linear_2753_378)"/>
<rect x="1.5" y="1" width="171" height="171" rx="85.5" stroke="url(#paint1_linear_2753_378)" stroke-width="2"/>
<rect x="21.5" y="21" width="131" height="131" rx="65.5" fill="url(#paint2_linear_2753_378)"/>
<rect x="21.5" y="21" width="131" height="131" rx="65.5" stroke="url(#paint3_linear_2753_378)" stroke-width="2"/>
<rect x="43.5" y="43" width="87" height="87" rx="43.5" fill="url(#paint4_linear_2753_378)"/>
<rect x="43.5" y="43" width="87" height="87" rx="43.5" stroke="url(#paint5_linear_2753_378)" stroke-width="2"/>
<path d="M74.805 68.7813C74.9921 68.9443 75.1201 69.1647 75.1689 69.4081C75.2178 69.6514 75.1847 69.9041 75.075 70.1268C75.055 70.1924 75.0452 70.2607 75.0457 70.3293C75.0457 70.471 75.0818 70.741 75.4215 71.0785C75.5858 71.2428 75.7118 71.3598 75.849 71.488C75.9615 71.5915 76.0808 71.6995 76.2315 71.848C76.524 72.127 76.8323 72.4555 77.109 72.8673C77.6827 73.729 78 74.8068 78 76.375C78 79.6825 75.8018 82 73.5 82C71.1983 82 69 79.6825 69 76.375C69 75.6415 69.1958 74.7663 69.4658 73.9585C69.7358 73.1508 70.1137 72.3115 70.5502 71.6365C71.07 70.759 71.8012 70.0233 72.3682 69.5283C72.6802 69.2562 73.0046 68.9987 73.3403 68.7565L73.4392 68.689C73.6456 68.5515 73.8915 68.486 74.1389 68.5026C74.3863 68.5193 74.619 68.6173 74.805 68.7813ZM73.5 84.25C74.8758 84.2481 76.2096 83.7757 77.28 82.9113C77.3865 83.2278 77.4765 83.5465 77.55 83.8675C78 85.825 78 88.1785 78 89.8188V89.875C78 96.1458 77.1473 99.703 76.209 101.737C75.7365 102.761 75.2348 103.413 74.8005 103.823C74.6237 103.992 74.4291 104.141 74.22 104.268C74.1241 104.326 74.0241 104.376 73.9207 104.419C73.9207 104.419 73.6665 104.5 73.5 104.5C73.3335 104.5 73.0792 104.419 73.0792 104.419C72.9759 104.376 72.8759 104.326 72.78 104.268C72.5709 104.141 72.3763 103.992 72.1995 103.823C71.7652 103.411 71.2635 102.761 70.791 101.737C69.8528 99.703 69 96.1458 69 89.875V89.8188C69 88.1763 69 85.825 69.45 83.8675C69.5235 83.5465 69.6135 83.2278 69.72 82.9113C70.7904 83.7757 72.1242 84.2481 73.5 84.25ZM84.75 93.25C83.1412 93.25 81.609 92.9125 80.2275 92.305C80.2575 91.504 80.2725 90.6715 80.2725 89.8075C81.6353 90.589 83.179 91.0001 84.75 91V86.5C84.75 85.3065 85.2241 84.1619 86.068 83.318C86.9119 82.4741 88.0565 82 89.25 82H93.75C93.7502 80.4019 93.3249 78.8325 92.5177 77.4532C91.7106 76.0739 90.5507 74.9344 89.1573 74.1518C87.7639 73.3691 86.1873 72.9717 84.5894 73.0002C82.9915 73.0287 81.4301 73.4822 80.0655 74.314C79.9252 73.559 79.6687 72.8303 79.305 72.154C81.0178 71.2066 82.9482 70.7225 84.9054 70.7496C86.8626 70.7766 88.7789 71.3139 90.4649 72.3082C92.1509 73.3025 93.5484 74.7196 94.5191 76.4193C95.4898 78.119 96.0003 80.0426 96 82H100.5C101.693 82 102.838 82.4741 103.682 83.318C104.526 84.1619 105 85.3065 105 86.5V97.75C105 98.9435 104.526 100.088 103.682 100.932C102.838 101.776 101.693 102.25 100.5 102.25H89.25C88.0565 102.25 86.9119 101.776 86.068 100.932C85.2241 100.088 84.75 98.9435 84.75 97.75V93.25ZM95.775 84.25C95.3314 86.4108 94.2635 88.3939 92.7037 89.9537C91.1439 91.5135 89.1608 92.5814 87 93.025V97.75C87 98.3467 87.2371 98.919 87.659 99.341C88.081 99.763 88.6533 100 89.25 100H100.5C101.097 100 101.669 99.763 102.091 99.341C102.513 98.919 102.75 98.3467 102.75 97.75V86.5C102.75 85.9033 102.513 85.331 102.091 84.909C101.669 84.4871 101.097 84.25 100.5 84.25H95.775ZM93.4665 84.25H89.25C88.6533 84.25 88.081 84.4871 87.659 84.909C87.2371 85.331 87 85.9033 87 86.5V90.7165C88.5563 90.3126 89.9763 89.5001 91.1132 88.3632C92.2501 87.2263 93.0626 85.8063 93.4665 84.25Z" fill="white"/>
<defs>
<linearGradient id="paint0_linear_2753_378" x1="87" y1="0" x2="87" y2="173" gradientUnits="userSpaceOnUse">
<stop stop-color="#1A1A1A"/>
<stop offset="0.565952" stop-color="#1A1A1A" stop-opacity="0"/>
</linearGradient>
<linearGradient id="paint1_linear_2753_378" x1="87" y1="0" x2="87" y2="173" gradientUnits="userSpaceOnUse">
<stop stop-color="#333333"/>
<stop offset="0.745602" stop-color="#333333" stop-opacity="0"/>
</linearGradient>
<linearGradient id="paint2_linear_2753_378" x1="87" y1="20" x2="87" y2="153" gradientUnits="userSpaceOnUse">
<stop stop-color="#1A1A1A"/>
<stop offset="0.658009" stop-color="#1A1A1A" stop-opacity="0"/>
</linearGradient>
<linearGradient id="paint3_linear_2753_378" x1="87" y1="20" x2="87" y2="153" gradientUnits="userSpaceOnUse">
<stop stop-color="#0028A1"/>
<stop offset="0.82384" stop-color="#333333" stop-opacity="0"/>
</linearGradient>
<linearGradient id="paint4_linear_2753_378" x1="87" y1="44" x2="87" y2="129" gradientUnits="userSpaceOnUse">
<stop stop-color="#1A1A1A"/>
<stop offset="1" stop-color="#1A1A1A" stop-opacity="0"/>
</linearGradient>
<linearGradient id="paint5_linear_2753_378" x1="87" y1="44" x2="87" y2="129" gradientUnits="userSpaceOnUse">
<stop stop-color="#333333"/>
<stop offset="0.84964" stop-color="#333333" stop-opacity="0"/>
</linearGradient>
</defs>
</svg>
