<svg width="201" height="201" viewBox="0 0 201 201" fill="none" xmlns="http://www.w3.org/2000/svg">
<g filter="url(#filter0_i_2753_418)">
<path d="M58.8327 100.5L100.499 58.8333L142.166 100.5L100.499 142.167L58.8327 100.5Z" fill="white" fill-opacity="0.02"/>
<path d="M58.8327 100.5L100.499 58.8333L142.166 100.5L100.499 142.167L58.8327 100.5Z" fill="url(#paint0_linear_2753_418)" fill-opacity="0.2"/>
<path d="M183.833 50.5V100.5L100.499 17.1666H150.499L183.833 50.5Z" fill="white" fill-opacity="0.02"/>
<path d="M183.833 50.5V100.5L100.499 17.1666H150.499L183.833 50.5Z" fill="url(#paint1_linear_2753_418)" fill-opacity="0.2"/>
<path d="M183.833 150.5V100.5L100.499 183.833H150.499L183.833 150.5Z" fill="white" fill-opacity="0.02"/>
<path d="M183.833 150.5V100.5L100.499 183.833H150.499L183.833 150.5Z" fill="url(#paint2_linear_2753_418)" fill-opacity="0.2"/>
<path d="M17.166 150.5V100.5L100.499 183.833H50.4994L17.166 150.5Z" fill="white" fill-opacity="0.02"/>
<path d="M17.166 150.5V100.5L100.499 183.833H50.4994L17.166 150.5Z" fill="url(#paint3_linear_2753_418)" fill-opacity="0.2"/>
<path d="M17.166 50.5V100.5L100.499 17.1666H50.4994L17.166 50.5Z" fill="white" fill-opacity="0.02"/>
<path d="M17.166 50.5V100.5L100.499 17.1666H50.4994L17.166 50.5Z" fill="url(#paint4_linear_2753_418)" fill-opacity="0.2"/>
</g>
<defs>
<filter id="filter0_i_2753_418" x="17.166" y="17.1666" width="166.666" height="166.667" filterUnits="userSpaceOnUse" color-interpolation-filters="sRGB">
<feFlood flood-opacity="0" result="BackgroundImageFix"/>
<feBlend mode="normal" in="SourceGraphic" in2="BackgroundImageFix" result="shape"/>
<feColorMatrix in="SourceAlpha" type="matrix" values="0 0 0 0 0 0 0 0 0 0 0 0 0 0 0 0 0 0 127 0" result="hardAlpha"/>
<feOffset/>
<feGaussianBlur stdDeviation="6"/>
<feComposite in2="hardAlpha" operator="arithmetic" k2="-1" k3="1"/>
<feColorMatrix type="matrix" values="0 0 0 0 1 0 0 0 0 1 0 0 0 0 1 0 0 0 0.2 0"/>
<feBlend mode="normal" in2="shape" result="effect1_innerShadow_2753_418"/>
</filter>
<linearGradient id="paint0_linear_2753_418" x1="100.499" y1="-62.9782" x2="100.499" y2="183.833" gradientUnits="userSpaceOnUse">
<stop stop-color="white"/>
<stop offset="0.773658" stop-color="white" stop-opacity="0"/>
</linearGradient>
<linearGradient id="paint1_linear_2753_418" x1="100.499" y1="-62.9782" x2="100.499" y2="183.833" gradientUnits="userSpaceOnUse">
<stop stop-color="white"/>
<stop offset="0.773658" stop-color="white" stop-opacity="0"/>
</linearGradient>
<linearGradient id="paint2_linear_2753_418" x1="100.499" y1="-62.9782" x2="100.499" y2="183.833" gradientUnits="userSpaceOnUse">
<stop stop-color="white"/>
<stop offset="0.773658" stop-color="white" stop-opacity="0"/>
</linearGradient>
<linearGradient id="paint3_linear_2753_418" x1="100.499" y1="-62.9782" x2="100.499" y2="183.833" gradientUnits="userSpaceOnUse">
<stop stop-color="white"/>
<stop offset="0.773658" stop-color="white" stop-opacity="0"/>
</linearGradient>
<linearGradient id="paint4_linear_2753_418" x1="100.499" y1="-62.9782" x2="100.499" y2="183.833" gradientUnits="userSpaceOnUse">
<stop stop-color="white"/>
<stop offset="0.773658" stop-color="white" stop-opacity="0"/>
</linearGradient>
</defs>
</svg>
