<svg width="201" height="201" viewBox="0 0 201 201" fill="none" xmlns="http://www.w3.org/2000/svg">
<g filter="url(#filter0_i_2753_437)">
<path d="M100.499 100.5H142.166L183.833 58.8333V17.1666H142.166L100.499 58.8333V100.5Z" fill="white" fill-opacity="0.02"/>
<path d="M100.499 100.5H142.166L183.833 58.8333V17.1666H142.166L100.499 58.8333V100.5Z" fill="url(#paint0_linear_2753_437)" fill-opacity="0.2"/>
<path d="M100.499 183.833H142.166L183.833 142.167V100.5H142.166L100.499 142.167V183.833Z" fill="white" fill-opacity="0.02"/>
<path d="M100.499 183.833H142.166L183.833 142.167V100.5H142.166L100.499 142.167V183.833Z" fill="url(#paint1_linear_2753_437)" fill-opacity="0.2"/>
<path d="M17.166 183.833H58.8327L100.499 142.167V100.5H58.8327L17.166 142.167V183.833Z" fill="white" fill-opacity="0.02"/>
<path d="M17.166 183.833H58.8327L100.499 142.167V100.5H58.8327L17.166 142.167V183.833Z" fill="url(#paint2_linear_2753_437)" fill-opacity="0.2"/>
<path d="M17.166 100.5H58.8327L100.499 58.8333V17.1666H58.8327L17.166 58.8333V100.5Z" fill="white" fill-opacity="0.02"/>
<path d="M17.166 100.5H58.8327L100.499 58.8333V17.1666H58.8327L17.166 58.8333V100.5Z" fill="url(#paint3_linear_2753_437)" fill-opacity="0.2"/>
</g>
<defs>
<filter id="filter0_i_2753_437" x="17.166" y="17.1666" width="166.666" height="166.667" filterUnits="userSpaceOnUse" color-interpolation-filters="sRGB">
<feFlood flood-opacity="0" result="BackgroundImageFix"/>
<feBlend mode="normal" in="SourceGraphic" in2="BackgroundImageFix" result="shape"/>
<feColorMatrix in="SourceAlpha" type="matrix" values="0 0 0 0 0 0 0 0 0 0 0 0 0 0 0 0 0 0 127 0" result="hardAlpha"/>
<feOffset/>
<feGaussianBlur stdDeviation="6"/>
<feComposite in2="hardAlpha" operator="arithmetic" k2="-1" k3="1"/>
<feColorMatrix type="matrix" values="0 0 0 0 1 0 0 0 0 1 0 0 0 0 1 0 0 0 0.2 0"/>
<feBlend mode="normal" in2="shape" result="effect1_innerShadow_2753_437"/>
</filter>
<linearGradient id="paint0_linear_2753_437" x1="100.499" y1="-62.9782" x2="100.499" y2="183.833" gradientUnits="userSpaceOnUse">
<stop stop-color="white"/>
<stop offset="0.773658" stop-color="white" stop-opacity="0"/>
</linearGradient>
<linearGradient id="paint1_linear_2753_437" x1="100.499" y1="-62.9782" x2="100.499" y2="183.833" gradientUnits="userSpaceOnUse">
<stop stop-color="white"/>
<stop offset="0.773658" stop-color="white" stop-opacity="0"/>
</linearGradient>
<linearGradient id="paint2_linear_2753_437" x1="100.499" y1="-62.9782" x2="100.499" y2="183.833" gradientUnits="userSpaceOnUse">
<stop stop-color="white"/>
<stop offset="0.773658" stop-color="white" stop-opacity="0"/>
</linearGradient>
<linearGradient id="paint3_linear_2753_437" x1="100.499" y1="-62.9782" x2="100.499" y2="183.833" gradientUnits="userSpaceOnUse">
<stop stop-color="white"/>
<stop offset="0.773658" stop-color="white" stop-opacity="0"/>
</linearGradient>
</defs>
</svg>
