<svg width="127" height="50" viewBox="0 0 127 50" fill="none" xmlns="http://www.w3.org/2000/svg">
<g clip-path="url(#clip0_2753_5839)">
<path d="M39.7329 33.7806L41.2622 30.2061C42.9367 31.4462 45.1207 32.1025 47.3053 32.1025C48.9071 32.1025 49.9263 31.4827 49.9263 30.5345C49.8897 27.9083 40.2791 29.9508 40.206 23.3481C40.1694 19.9924 43.1549 17.4027 47.3783 17.4027C49.8897 17.4027 52.4022 18.023 54.1858 19.4458L52.7567 23.0964C51.1157 22.0412 49.0888 21.3056 47.1596 21.3056C45.8491 21.3056 44.975 21.9253 44.975 22.7283C45.0116 25.318 54.6959 23.8953 54.805 30.2061C54.805 33.6349 51.8921 36.0424 47.7417 36.0424C44.6842 36.0424 41.8809 35.313 39.7324 33.7806H39.7329ZM100.627 28.9118C100.241 29.5977 99.6792 30.1685 98.9998 30.5658C98.3204 30.9631 97.5475 31.1725 96.7605 31.1726C94.3075 31.1726 92.3193 29.1802 92.3193 26.7226C92.3193 24.2649 94.3075 22.2725 96.7605 22.2725C97.5475 22.2726 98.3204 22.482 98.9998 22.8793C99.6792 23.2766 100.241 23.8474 100.627 24.5333L104.878 22.1733C103.286 19.3272 100.248 17.4027 96.7605 17.4027C91.6233 17.4027 87.4589 21.575 87.4589 26.7226C87.4589 31.8696 91.6233 36.0424 96.7605 36.0424C100.248 36.0424 103.286 34.1179 104.878 31.2718L100.627 28.9118ZM57.5639 35.6774H62.8791V9.64453H57.5644L57.5639 35.6774ZM107.563 9.64453V35.6774H112.878V27.878L119.176 35.6774H125.97L117.961 26.4119L125.387 17.7661H118.885L112.878 24.9541V9.64453H107.563ZM79.2543 17.7672V19.8833C78.3808 18.424 76.2328 17.4027 73.9757 17.4027C69.3157 17.4027 65.639 21.5248 65.639 26.7043C65.639 31.8837 69.3157 36.0424 73.9757 36.0424C76.2328 36.0424 78.3808 35.0211 79.2543 33.5618V35.6774H84.5695V17.7672H79.2543ZM79.2543 28.9478C78.4899 30.2244 76.8881 31.1721 75.1045 31.1721C72.651 31.1721 70.6628 29.1802 70.6628 26.7226C70.6628 24.2649 72.651 22.2725 75.1045 22.2725C76.8881 22.2725 78.4899 23.2572 79.2543 24.5699V28.9478Z" fill="#E6E6E6"/>
<path d="M11.664 9.06641C9.94151 9.06641 8.54537 10.4657 8.54537 12.1913C8.54495 12.6012 8.62529 13.0073 8.7818 13.3862C8.9383 13.7651 9.1679 14.1095 9.45749 14.3996C9.74708 14.6898 10.091 14.9201 10.4696 15.0774C10.8482 15.2346 11.254 15.3158 11.664 15.3162H14.7831V12.1913C14.7838 11.3633 14.4556 10.5689 13.8707 9.98293C13.2857 9.39692 12.492 9.06724 11.664 9.06641ZM11.664 17.3994H3.34714C1.62466 17.3994 0.228516 18.7987 0.228516 20.5248C0.228516 22.2505 1.62466 23.6497 3.34714 23.6497H11.6645C13.3865 23.6497 14.7831 22.2505 14.7831 20.5248C14.7831 18.7987 13.3865 17.3994 11.664 17.3994Z" fill="#E6E6E6"/>
<path d="M31.4159 20.5248C31.4159 18.7987 30.0193 17.3994 28.2968 17.3994C26.5743 17.3994 25.1782 18.7987 25.1782 20.5248V23.6497H28.2968C29.1248 23.6489 29.9185 23.3192 30.5035 22.7332C31.0884 22.1472 31.4166 21.3528 31.4159 20.5248ZM23.0991 20.5248V12.1913C23.0998 11.3633 22.7716 10.5689 22.1866 9.98293C21.6017 9.39691 20.8079 9.06724 19.98 9.06641C18.2575 9.06641 16.8613 10.4657 16.8613 12.1913V20.5243C16.8613 22.251 18.2575 23.6503 19.98 23.6503C20.8079 23.6494 21.6017 23.3197 22.1866 22.7337C22.7716 22.1477 23.0998 21.3534 23.0991 20.5254" fill="#E6E6E6"/>
<path d="M19.98 40.3177C20.8079 40.3169 21.6017 39.9872 22.1866 39.4012C22.7716 38.8152 23.0998 38.0208 23.0991 37.1928C23.0998 36.3648 22.7716 35.5705 22.1866 34.9845C21.6017 34.3984 20.8079 34.0688 19.98 34.0679H16.8613V37.1928C16.8613 38.9184 18.2575 40.3177 19.98 40.3177ZM19.98 31.9847H28.2973C30.0193 31.9847 31.4159 30.5854 31.4159 28.8593C31.4166 28.0313 31.0884 27.2369 30.5035 26.6509C29.9185 26.0649 29.1248 25.7352 28.2968 25.7344H19.98C18.2575 25.7344 16.8613 27.1337 16.8613 28.8593C16.8609 29.2692 16.9413 29.6752 17.0978 30.0541C17.2543 30.4331 17.4839 30.7774 17.7735 31.0676C18.063 31.3578 18.407 31.5881 18.7855 31.7453C19.1641 31.9026 19.57 31.9837 19.98 31.9842" fill="#E6E6E6"/>
<path d="M0.228517 28.8593C0.228106 29.2692 0.308445 29.6752 0.464947 30.0541C0.62145 30.4331 0.851052 30.7774 1.14064 31.0676C1.43023 31.3578 1.77414 31.5881 2.15273 31.7453C2.53133 31.9026 2.93719 31.9837 3.34714 31.9842C4.17513 31.9833 4.96888 31.6536 5.55382 31.0676C6.13876 30.4816 6.46698 29.6873 6.46629 28.8593V25.7344H3.34714C1.62467 25.7344 0.228517 27.1337 0.228517 28.8593ZM8.54537 28.8593V37.1923C8.54537 38.9184 9.94152 40.3177 11.664 40.3177C12.492 40.3169 13.2857 39.9872 13.8707 39.4012C14.4556 38.8152 14.7838 38.0208 14.7831 37.1928V28.8593C14.7835 28.4493 14.7032 28.0432 14.5467 27.6643C14.3901 27.2853 14.1605 26.9409 13.8708 26.6507C13.5812 26.3606 13.2372 26.1303 12.8586 25.9731C12.4799 25.8158 12.074 25.7347 11.664 25.7344C9.94152 25.7344 8.54537 27.1337 8.54537 28.8593Z" fill="#E6E6E6"/>
</g>
<defs>
<clipPath id="clip0_2753_5839">
<rect width="126.042" height="50" fill="white" transform="translate(0.228516)"/>
</clipPath>
</defs>
</svg>
