<svg width="138" height="138" viewBox="0 0 138 138" fill="none" xmlns="http://www.w3.org/2000/svg">
<rect x="1" y="1" width="136" height="136" rx="68" fill="url(#paint0_linear_2753_515)"/>
<rect x="1" y="1" width="136" height="136" rx="68" stroke="url(#paint1_linear_2753_515)" stroke-width="2"/>
<rect x="17" y="17" width="104" height="104" rx="52" fill="url(#paint2_linear_2753_515)"/>
<rect x="17" y="17" width="104" height="104" rx="52" stroke="url(#paint3_linear_2753_515)" stroke-width="2"/>
<rect x="35" y="35" width="68" height="68" rx="34" fill="url(#paint4_linear_2753_515)"/>
<rect x="35" y="35" width="68" height="68" rx="34" stroke="url(#paint5_linear_2753_515)" stroke-width="2"/>
<path d="M68.9993 81.0418L76.791 85.2918L84.5827 81.0418V71.1252L76.791 76.0835L68.9993 71.1252V81.0418Z" fill="white"/>
<path d="M53.416 71.1252L61.2077 66.8752L68.9993 71.1252L61.2077 76.0835V85.2918L53.416 81.0418V71.1252Z" fill="white"/>
<path d="M76.791 66.8752L68.9993 71.1252V61.9168L61.2077 56.9585L68.9993 52.7085L76.791 56.9585V66.8752Z" fill="white"/>
<defs>
<linearGradient id="paint0_linear_2753_515" x1="69" y1="0" x2="69" y2="138" gradientUnits="userSpaceOnUse">
<stop stop-color="#1A1A1A"/>
<stop offset="0.565952" stop-color="#1A1A1A" stop-opacity="0"/>
</linearGradient>
<linearGradient id="paint1_linear_2753_515" x1="69" y1="0" x2="69" y2="138" gradientUnits="userSpaceOnUse">
<stop stop-color="#333333"/>
<stop offset="0.745602" stop-color="#333333" stop-opacity="0"/>
</linearGradient>
<linearGradient id="paint2_linear_2753_515" x1="69" y1="16" x2="69" y2="122" gradientUnits="userSpaceOnUse">
<stop stop-color="#1A1A1A"/>
<stop offset="0.658009" stop-color="#1A1A1A" stop-opacity="0"/>
</linearGradient>
<linearGradient id="paint3_linear_2753_515" x1="69" y1="16" x2="69" y2="122" gradientUnits="userSpaceOnUse">
<stop stop-color="#333333"/>
<stop offset="0.82384" stop-color="#333333" stop-opacity="0"/>
</linearGradient>
<linearGradient id="paint4_linear_2753_515" x1="69" y1="36" x2="69" y2="102" gradientUnits="userSpaceOnUse">
<stop stop-color="#1A1A1A"/>
<stop offset="1" stop-color="#1A1A1A" stop-opacity="0"/>
</linearGradient>
<linearGradient id="paint5_linear_2753_515" x1="69" y1="36" x2="69" y2="102" gradientUnits="userSpaceOnUse">
<stop stop-color="#333333"/>
<stop offset="0.84964" stop-color="#333333" stop-opacity="0"/>
</linearGradient>
</defs>
</svg>
