<svg width="147" height="50" viewBox="0 0 147 50" fill="none" xmlns="http://www.w3.org/2000/svg">
<g clip-path="url(#clip0_2753_5833)">
<path d="M22.2875 3.20703C10.2063 3.20703 0.412109 13.001 0.412109 25.0822C0.412109 37.1639 10.2063 46.957 22.2875 46.957C34.37 46.957 44.1632 37.1639 44.1632 25.0822C44.1632 13.0018 34.37 3.20808 22.2873 3.20808L22.2875 3.20703ZM32.3194 34.7572C31.9276 35.3999 31.0865 35.6036 30.4439 35.2092C25.3078 32.0719 18.842 31.3614 11.2274 33.1011C10.4937 33.2683 9.76225 32.8085 9.59506 32.0745C9.4271 31.3405 9.88502 30.6091 10.6206 30.4419C18.9536 28.5381 26.1013 29.3578 31.8675 32.8817C32.5101 33.2761 32.7139 34.1146 32.3194 34.7572ZM34.997 28.8009C34.5032 29.6034 33.4531 29.8568 32.6512 29.363C26.7711 25.7488 17.8078 24.7021 10.8528 26.8133C9.95085 27.0857 8.99817 26.5774 8.72441 25.677C8.45275 24.775 8.96134 23.8241 9.86177 23.5498C17.8063 21.1393 27.6828 22.307 34.4353 26.4564C35.2373 26.9501 35.4907 28.0003 34.997 28.8012V28.8009ZM35.2268 22.5985C28.1765 18.4109 16.5443 18.0258 9.81292 20.0688C8.73199 20.3967 7.58889 19.7864 7.26132 18.7055C6.93375 17.6241 7.54344 16.4817 8.62515 16.1531C16.3523 13.8074 29.1979 14.2606 37.315 19.0793C38.2894 19.6564 38.6081 20.912 38.0308 21.883C37.4561 22.8553 36.197 23.1758 35.2279 22.5985H35.2268ZM59.9279 23.4009C56.1506 22.5003 55.4793 21.8681 55.4793 20.5398C55.4793 19.2849 56.66 18.4404 58.418 18.4404C60.1212 18.4404 61.8087 19.0817 63.5797 20.4019C63.632 20.4418 63.6999 20.4578 63.7652 20.4473C63.8331 20.4374 63.8906 20.4011 63.9298 20.3465L65.774 17.7468C65.8497 17.6397 65.8288 17.4921 65.727 17.4104C63.6189 15.7195 61.247 14.8974 58.4729 14.8974C54.3952 14.8974 51.5453 17.3448 51.5453 20.8465C51.5453 24.6015 54.0034 25.9311 58.2508 26.9575C61.8635 27.79 62.4748 28.4874 62.4748 29.734C62.4748 31.1158 61.2418 31.9752 59.2565 31.9752C57.0518 31.9752 55.252 31.2308 53.2406 29.491C53.191 29.4466 53.1231 29.4283 53.0604 29.431C52.9925 29.4362 52.9324 29.4675 52.8906 29.5172L50.8217 31.9779C50.7355 32.0823 50.746 32.2339 50.8452 32.3227C53.1858 34.4124 56.0644 35.5148 59.1729 35.5148C63.5667 35.5148 66.4061 33.1142 66.4061 29.397C66.414 26.2605 64.5358 24.5234 59.9357 23.4043L59.9279 23.4009ZM76.3482 19.6759C74.4439 19.6759 72.8818 20.4262 71.5914 21.9634V20.2331C71.5914 20.0965 71.4817 19.9852 71.3458 19.9852H67.963C67.8272 19.9852 67.7175 20.0965 67.7175 20.2331V39.4592C67.7175 39.5951 67.8272 39.7074 67.963 39.7074H71.3458C71.4817 39.7074 71.5914 39.5951 71.5914 39.4592V33.3911C72.8818 34.8356 74.4439 35.5435 76.3482 35.5435C79.8877 35.5435 83.4717 32.819 83.4717 27.6105C83.4769 22.401 79.893 19.6757 76.3508 19.6757L76.3482 19.6759ZM79.5377 27.6105C79.5377 30.2616 77.9051 32.1137 75.5645 32.1137C73.2527 32.1137 71.5078 30.1781 71.5078 27.6105C71.5078 25.0427 73.2527 23.1076 75.5645 23.1076C77.8659 23.1073 79.5377 25.0007 79.5377 27.6103V27.6105ZM92.6536 19.6759C88.0953 19.6759 84.5244 23.1857 84.5244 27.6672C84.5244 32.1006 88.0718 35.5723 92.5987 35.5723C97.1727 35.5723 100.754 32.0745 100.754 27.6105C100.754 23.1617 97.1962 19.6765 92.6536 19.6765V19.6759ZM92.6536 32.1398C90.2295 32.1398 88.4009 30.1911 88.4009 27.6092C88.4009 25.0156 90.1668 23.1335 92.5987 23.1335C95.0385 23.1335 96.8775 25.0814 96.8775 27.6659C96.8775 30.259 95.1012 32.1398 92.6536 32.1398ZM110.487 19.9852H106.765V16.1803C106.765 16.0439 106.655 15.9327 106.519 15.9327H103.136C103.001 15.9327 102.888 16.0439 102.888 16.1803V19.9852H101.263C101.128 19.9852 101.018 20.0965 101.018 20.2331V23.1397C101.018 23.2761 101.128 23.3876 101.263 23.3876H102.888V30.9095C102.888 33.9475 104.401 35.4887 107.386 35.4887C108.599 35.4887 109.604 35.2379 110.552 34.6998C110.631 34.658 110.678 34.5744 110.678 34.4856V31.7166C110.678 31.6331 110.633 31.5521 110.56 31.5077C110.487 31.4606 110.396 31.458 110.32 31.4972C109.67 31.8237 109.04 31.9752 108.335 31.9752C107.251 31.9752 106.765 31.4815 106.765 30.3792V23.3889H110.487C110.623 23.3889 110.733 23.2776 110.733 23.141V20.2347C110.738 20.0981 110.628 19.9868 110.49 19.9868L110.487 19.9852ZM123.454 20.0001V19.5328C123.454 18.158 123.982 17.5449 125.163 17.5449C125.868 17.5449 126.435 17.6849 127.069 17.8965C127.148 17.9211 127.229 17.9088 127.291 17.862C127.357 17.8153 127.393 17.7403 127.393 17.6609V14.811C127.393 14.702 127.325 14.6057 127.218 14.5735C126.55 14.3742 125.693 14.1697 124.408 14.1697C121.286 14.1697 119.632 15.9287 119.632 19.2549V19.9706H118.008C117.872 19.9706 117.76 20.0819 117.76 20.2182V23.1397C117.76 23.2761 117.872 23.3876 118.008 23.3876H119.632V34.9871C119.632 35.1256 119.745 35.2353 119.881 35.2353H123.261C123.399 35.2353 123.509 35.1256 123.509 34.9871V23.3884H126.667L131.505 34.9871C130.956 36.2044 130.416 36.4473 129.679 36.4473C129.083 36.4473 128.454 36.2697 127.814 35.9171C127.754 35.8857 127.681 35.8805 127.618 35.8988C127.553 35.9223 127.498 35.9693 127.472 36.032L126.325 38.5476C126.27 38.6677 126.317 38.8062 126.432 38.8689C127.628 39.5167 128.707 39.7936 130.042 39.7936C132.539 39.7936 133.921 38.6285 135.136 35.4991L141.003 20.3387C141.034 20.2624 141.024 20.1762 140.977 20.1085C140.932 20.0414 140.857 20.0009 140.776 20.0009H137.254C137.147 20.0009 137.053 20.068 137.019 20.167L133.412 30.468L129.462 20.1602C129.426 20.0644 129.334 20.0009 129.232 20.0009H123.454V20.0001ZM115.936 19.9852H112.553C112.418 19.9852 112.305 20.0965 112.305 20.2331V34.9871C112.305 35.1256 112.418 35.2353 112.553 35.2353H115.936C116.072 35.2353 116.184 35.1256 116.184 34.9871V20.2342C116.184 20.0976 116.075 19.9863 115.936 19.9863V19.9852ZM114.264 13.2669C112.924 13.2669 111.838 14.3515 111.838 15.6913C111.838 17.0319 112.924 18.1178 114.264 18.1178C115.604 18.1178 116.689 17.0319 116.689 15.6913C116.689 14.3517 115.602 13.2669 114.264 13.2669ZM143.892 24.7293C142.555 24.7293 141.512 23.6543 141.512 22.349C141.512 21.0437 142.568 19.9565 143.905 19.9565C145.243 19.9565 146.285 21.0312 146.285 22.3354C146.285 23.6407 145.23 24.7293 143.892 24.7293ZM143.905 20.1932C142.685 20.1932 141.763 21.1623 141.763 22.349C141.763 23.5352 142.68 24.4913 143.892 24.4913C145.112 24.4913 146.034 23.5229 146.034 22.3354C146.034 21.1492 145.117 20.1932 143.905 20.1932ZM144.433 22.5802L145.107 23.5227H144.537L143.931 22.658H143.411V23.5227H142.936V21.0244H144.049C144.631 21.0244 145.013 21.3214 145.013 21.8213C145.015 22.2309 144.778 22.4812 144.435 22.5802H144.433ZM144.031 21.453H143.411V22.2432H144.031C144.339 22.2432 144.524 22.092 144.524 21.8477C144.524 21.5907 144.339 21.453 144.031 21.453Z" fill="#E6E6E6"/>
</g>
<defs>
<clipPath id="clip0_2753_5833">
<rect width="145.833" height="50" fill="white" transform="translate(0.333984)"/>
</clipPath>
</defs>
</svg>
