<svg width="101" height="50" viewBox="0 0 101 50" fill="none" xmlns="http://www.w3.org/2000/svg">
<g clip-path="url(#clip0_2753_5830)">
<path d="M0.751953 36.8698L11.017 20.8971H1.96798C1.8913 20.437 1.85843 19.9331 1.85843 19.3744C1.85843 18.8375 1.8913 18.3446 1.96798 17.8954H16.6151L16.8013 18.3884L6.45962 34.394H16.155C16.2317 34.8979 16.2645 35.4238 16.2645 35.9496C16.2645 36.4535 16.2317 36.9356 16.155 37.3957H0.938192L0.751953 36.8698Z" fill="#E6E6E6"/>
<path d="M30.3749 24.5454C30.3749 23.0446 29.9915 22.0148 29.2356 21.4232C28.4797 20.8426 27.3732 20.5468 25.9271 20.5468C25.0397 20.5468 24.2071 20.6125 23.4403 20.7549C22.6625 20.8973 21.9175 21.0726 21.1725 21.3027C20.6905 20.4701 20.4495 19.4622 20.4495 18.301C21.315 18.0271 22.2571 17.808 23.2979 17.6546C24.3386 17.5012 25.3355 17.4245 26.2996 17.4245C28.8302 17.4245 30.7584 18.0052 32.0839 19.1555C33.3986 20.3058 34.0668 22.1572 34.0668 24.6878V36.892C33.1795 37.0892 32.1059 37.3083 30.835 37.5164C29.5642 37.7355 28.2715 37.8341 26.9569 37.8341C25.719 37.8341 24.5906 37.7246 23.5937 37.4945C22.5967 37.2644 21.7422 36.9029 21.0411 36.388C20.34 35.8841 19.8031 35.2377 19.4197 34.4489C19.0363 33.6602 18.85 32.7071 18.85 31.6006C18.85 30.516 19.0691 29.552 19.5183 28.7303C19.9565 27.9087 20.5591 27.2185 21.3259 26.6817C22.0818 26.1339 22.9582 25.7286 23.9552 25.4657C24.9411 25.2027 25.9819 25.0603 27.0774 25.0603C27.8881 25.0603 28.5564 25.0822 29.0713 25.1151C29.5862 25.148 30.0244 25.2027 30.3859 25.2466V24.5454H30.3749ZM30.3749 28.2373C29.9915 28.1826 29.5095 28.1387 28.9288 28.084C28.3482 28.0292 27.8552 28.0073 27.4499 28.0073C25.8723 28.0073 24.6782 28.3031 23.8566 28.8837C23.0349 29.4643 22.6186 30.3517 22.6186 31.5458C22.6186 32.3017 22.7611 32.9043 23.0349 33.3315C23.3088 33.7588 23.6594 34.0874 24.0757 34.3175C24.492 34.5475 24.9521 34.69 25.467 34.7338C25.9709 34.7886 26.453 34.8105 26.9131 34.8105C27.4937 34.8105 28.0962 34.7776 28.7207 34.7119C29.3451 34.6461 29.8929 34.5585 30.3749 34.427V28.2373Z" fill="#E6E6E6"/>
<path d="M38.175 17.8962C38.4269 17.8414 38.6899 17.8086 38.9528 17.7867C39.2157 17.7648 39.4896 17.7538 39.7744 17.7538C40.0264 17.7538 40.2893 17.7648 40.5742 17.7867C40.848 17.8086 41.1219 17.8524 41.3739 17.8962C41.3958 17.951 41.4287 18.1044 41.4725 18.3673C41.5053 18.6302 41.5492 18.9151 41.582 19.2218C41.6149 19.5286 41.6587 19.8134 41.6916 20.0982C41.7244 20.3831 41.7464 20.5583 41.7464 20.635C41.9983 20.2297 42.3051 19.8353 42.6556 19.4519C43.0062 19.0684 43.4335 18.7288 43.9264 18.4221C44.4194 18.1153 44.9781 17.8743 45.6026 17.699C46.227 17.5237 46.9172 17.4361 47.6731 17.4361C48.8125 17.4361 49.8751 17.6223 50.8501 18.0058C51.8252 18.3892 52.6578 18.9698 53.3589 19.7696C54.06 20.5693 54.5968 21.5881 54.9912 22.8151C55.3856 24.0421 55.5828 25.4991 55.5828 27.1753C55.5828 30.5276 54.6735 33.1459 52.8659 35.0302C51.0473 36.9145 48.4838 37.8676 45.1644 37.8676C44.6057 37.8676 44.036 37.8347 43.4554 37.758C42.8747 37.6814 42.3598 37.5828 41.9326 37.4513V46.3908C41.6259 46.4455 41.3082 46.4784 40.9576 46.5003C40.618 46.5222 40.3003 46.5332 40.0264 46.5332C39.7525 46.5332 39.4348 46.5222 39.0952 46.5003C38.7556 46.4784 38.4379 46.4346 38.164 46.3908V17.8962H38.175ZM41.9436 34.2086C42.4256 34.3838 42.9186 34.5153 43.4225 34.592C43.9264 34.6687 44.5838 34.7015 45.4054 34.7015C46.3147 34.7015 47.1582 34.5591 47.9141 34.2633C48.6701 33.9675 49.3274 33.5184 49.8751 32.9158C50.4229 32.3023 50.8501 31.5355 51.1678 30.6152C51.4855 29.695 51.6389 28.5885 51.6389 27.3287C51.6389 25.302 51.2664 23.6915 50.5215 22.4974C49.7765 21.3033 48.5495 20.7117 46.8515 20.7117C46.2161 20.7117 45.6135 20.8213 45.022 21.0513C44.4413 21.2814 43.9155 21.621 43.4663 22.0811C43.0062 22.5412 42.6447 23.1109 42.3598 23.812C42.075 24.5132 41.9436 25.3348 41.9436 26.2989V34.2086Z" fill="#E6E6E6"/>
<path d="M60.2716 20.8533H57.7957C57.741 20.6452 57.7081 20.4151 57.6862 20.1522C57.6643 19.8892 57.6533 19.6263 57.6533 19.3744C57.6533 19.1224 57.6643 18.8595 57.6862 18.5965C57.7081 18.3336 57.7519 18.0926 57.7957 17.8954H63.9635V37.4066C63.6896 37.4614 63.3719 37.4943 63.0323 37.5162C62.6927 37.5381 62.375 37.5491 62.1011 37.5491C61.8492 37.5491 61.5534 37.5381 61.2028 37.5162C60.8632 37.4943 60.5455 37.4505 60.2716 37.4066V20.8533Z" fill="#E6E6E6"/>
<path d="M72.0594 28.5772C72.1142 30.7025 72.6619 32.2691 73.7136 33.2551C74.7653 34.2411 76.321 34.7341 78.3696 34.7341C80.1663 34.7341 81.8862 34.4164 83.5076 33.781C83.7157 34.1644 83.8801 34.6245 84.0006 35.1723C84.132 35.72 84.1978 36.2568 84.2306 36.7936C83.398 37.1442 82.4778 37.4181 81.4699 37.5934C80.473 37.7687 79.3556 37.8563 78.1395 37.8563C76.3648 37.8563 74.842 37.6043 73.5712 37.1113C72.3004 36.6184 71.2597 35.9172 70.438 35.0189C69.6164 34.1206 69.0139 33.0579 68.6304 31.82C68.247 30.593 68.0608 29.2455 68.0608 27.7665C68.0608 26.3204 68.247 24.973 68.6085 23.7131C68.97 22.4533 69.5397 21.3687 70.2956 20.4375C71.0515 19.5173 72.0156 18.7723 73.1659 18.2355C74.3162 17.6877 75.6856 17.4139 77.2522 17.4139C78.5997 17.4139 79.7719 17.6439 80.7907 18.104C81.8095 18.5642 82.6531 19.1886 83.3433 19.9883C84.0225 20.7881 84.5483 21.7412 84.8989 22.8367C85.2495 23.9432 85.4357 25.1373 85.4357 26.43C85.4357 26.7806 85.4248 27.164 85.3919 27.5474C85.37 27.9418 85.3371 28.2814 85.3152 28.5553H72.0594V28.5772ZM81.7219 25.7617C81.7219 25.0496 81.6233 24.3704 81.4371 23.7241C81.2508 23.0777 80.966 22.519 80.6045 22.037C80.232 21.5549 79.7719 21.1715 79.2022 20.8757C78.6325 20.5799 77.9533 20.4375 77.1645 20.4375C75.6198 20.4375 74.4367 20.9086 73.6041 21.8398C72.7824 22.7819 72.2785 24.0856 72.1032 25.7617H81.7219Z" fill="#E6E6E6"/>
<path d="M89.5988 17.8954C89.8727 17.8406 90.1465 17.8078 90.3985 17.7858C90.6505 17.7639 90.9134 17.753 91.1982 17.753C91.4721 17.753 91.757 17.7639 92.0308 17.7858C92.3047 17.8078 92.5676 17.8516 92.7867 17.8954C92.8634 18.2788 92.9401 18.7718 93.0168 19.3963C93.0935 20.0207 93.1264 20.5466 93.1264 20.9738C93.6632 20.1084 94.3643 19.3634 95.2407 18.728C96.1171 18.0926 97.2346 17.7749 98.604 17.7749C98.8121 17.7749 99.0203 17.7858 99.2284 17.7968C99.4475 17.8078 99.6228 17.8297 99.7762 17.8516C99.8309 18.0816 99.8638 18.3227 99.8857 18.5746C99.9076 18.8266 99.9186 19.0895 99.9186 19.3744C99.9186 19.6811 99.8967 19.9988 99.8638 20.3275C99.8309 20.6561 99.7762 20.9738 99.7323 21.2806C99.5242 21.2258 99.316 21.2039 99.1079 21.2039C98.8888 21.2039 98.7245 21.2039 98.593 21.2039C97.9138 21.2039 97.2565 21.3025 96.632 21.4887C96.0076 21.675 95.4489 22.0146 94.9559 22.4966C94.4629 22.9786 94.0685 23.6359 93.7727 24.4795C93.4769 25.3121 93.3345 26.3967 93.3345 27.7113V37.4067C93.0606 37.4614 92.7429 37.4943 92.4033 37.5162C92.0637 37.5381 91.746 37.5491 91.4721 37.5491C91.1982 37.5491 90.8805 37.5381 90.5409 37.5162C90.2013 37.4943 89.8727 37.4505 89.5659 37.4067V17.8954H89.5988Z" fill="#E6E6E6"/>
<path d="M67.5457 6.41476H63.8648L66.4721 3.80741C66.264 3.52258 66.0339 3.2487 65.7929 2.99673C65.5409 2.74476 65.278 2.5147 64.9822 2.3175L62.3749 4.92485V1.24389C62.0352 1.18912 61.6847 1.15625 61.3232 1.15625H61.3122C60.9507 1.15625 60.6001 1.18912 60.2605 1.24389V4.92485L57.6532 2.3175C57.3683 2.52565 57.0944 2.75571 56.8425 2.99673C56.5905 3.2487 56.3714 3.51162 56.1632 3.80741L58.7815 6.41476H55.1006C55.1006 6.41476 55.013 7.10493 55.013 7.46646C55.013 7.82798 55.0458 8.17855 55.1006 8.51816H58.7815L56.1742 11.1255C56.5795 11.6952 57.0835 12.1991 57.6641 12.6154L60.2715 10.0081V13.689C60.6111 13.7438 60.9616 13.7767 61.3232 13.7767H61.3341C61.6956 13.7767 62.0462 13.7438 62.3858 13.689V10.0081L64.9931 12.6154C65.278 12.4073 65.5519 12.1772 65.8038 11.9362C66.0558 11.6842 66.2859 11.4213 66.4831 11.1255L63.8757 8.51816H67.5567C67.6115 8.17855 67.6443 7.82798 67.6443 7.46646V7.4555C67.6334 7.10493 67.6115 6.75437 67.5457 6.41476ZM62.9007 7.47741C62.9007 7.94849 62.8131 8.39765 62.6597 8.81395C62.2434 8.96732 61.7942 9.05496 61.3232 9.05496C60.8521 9.05496 60.4029 8.96732 59.9866 8.81395C59.8332 8.39765 59.7456 7.94849 59.7456 7.47741V7.46646C59.7456 6.99538 59.8332 6.54622 59.9866 6.12992C60.4029 5.97655 60.8521 5.88891 61.3232 5.88891C61.7942 5.88891 62.2434 5.97655 62.6597 6.12992C62.8131 6.54622 62.9007 6.99538 62.9007 7.47741Z" fill="#E6E6E6"/>
</g>
<defs>
<clipPath id="clip0_2753_5830">
<rect width="100" height="50" fill="white" transform="translate(0.75)"/>
</clipPath>
</defs>
</svg>
