<svg width="103" height="50" viewBox="0 0 103 50" fill="none" xmlns="http://www.w3.org/2000/svg">
<g clip-path="url(#clip0_2753_5836)">
<path fill-rule="evenodd" clip-rule="evenodd" d="M83.7374 21.4581C84.1272 22.1306 84.2547 22.8958 84.2968 23.756L84.3521 24.9025V32.92L84.4087 34.0678C84.5218 35.9422 85.9042 37.3282 87.793 37.4461L88.9348 37.5026V24.9025L88.9913 23.756C89.0382 22.9054 89.1646 22.1258 89.5604 21.4484C89.9637 20.7537 90.5427 20.1773 91.2393 19.7771C91.9358 19.3769 92.7254 19.167 93.5288 19.1684C94.3321 19.1699 95.1209 19.3827 95.816 19.7854C96.5111 20.1881 97.088 20.7667 97.4888 21.4629C97.8786 22.1354 98.0001 22.915 98.0471 23.756L98.1036 24.8989V32.92L98.1601 34.0678C98.278 35.9518 99.6496 37.3378 101.544 37.4461L102.686 37.5026V23.756C102.686 21.3252 101.721 18.9939 100.002 17.2748C98.2839 15.5556 95.953 14.5893 93.5222 14.5883C92.2212 14.587 90.9348 14.8633 89.7491 15.3987C88.5634 15.9342 87.5057 16.7166 86.6465 17.6936C85.7869 16.717 84.7291 15.9348 83.5435 15.3992C82.3579 14.8635 81.0717 14.5867 79.7707 14.5871C77.8674 14.5871 76.1013 15.1646 74.6383 16.162C73.7456 15.1658 71.7485 14.5871 70.6019 14.5871V37.5026L71.7485 37.4461C73.6662 37.3197 75.0522 35.9711 75.1268 34.0678L75.1881 32.92V24.9025L75.2447 23.756C75.2928 22.8909 75.4131 22.1306 75.8041 21.4532C76.2078 20.7589 76.7865 20.1826 77.4826 19.782C78.1786 19.3813 78.9676 19.1702 79.7707 19.1698C80.5745 19.1699 81.3641 19.3814 82.0603 19.7831C82.7565 20.1847 83.3349 20.7623 83.7374 21.4581ZM5.29159 37.4473L6.43815 37.5026H23.6244L23.5679 36.3597C23.4127 34.4756 22.0785 33.0993 20.1884 32.9765L19.0418 32.92H8.73126L22.4779 19.1686L22.4213 18.0268C22.3323 16.1235 20.9415 14.7484 19.0418 14.6437L17.8953 14.592L0.708984 14.5871L0.76553 15.7337C0.915918 17.5997 2.26941 19.0049 4.14384 19.1132L5.29159 19.1698H15.6022L1.85554 32.9212L1.91209 34.0678C2.02518 35.9566 3.38829 37.3246 5.29159 37.4461V37.4473ZM66.1035 17.9414C67.1677 19.0053 68.0118 20.2684 68.5877 21.6587C69.1637 23.0489 69.4601 24.5389 69.4601 26.0437C69.4601 27.5485 69.1637 29.0385 68.5877 30.4287C68.0118 31.8189 67.1677 33.082 66.1035 34.146C63.9536 36.2942 61.0387 37.5009 57.9994 37.5009C54.9602 37.5009 52.0453 36.2942 49.8954 34.146C45.421 29.6716 45.421 22.4157 49.8954 17.9414C50.9585 16.8778 52.2208 16.0341 53.6101 15.4584C54.9993 14.8826 56.4884 14.5862 57.9922 14.5859C59.4985 14.5849 60.9902 14.8808 62.382 15.4568C63.7738 16.0328 65.0385 16.8775 66.1035 17.9426V17.9414ZM62.8612 21.1862C64.1499 22.4759 64.8739 24.2246 64.8739 26.0479C64.8739 27.8712 64.1499 29.6199 62.8612 30.9096C61.5714 32.1984 59.8227 32.9223 57.9994 32.9223C56.1761 32.9223 54.4275 32.1984 53.1377 30.9096C51.8489 29.6199 51.125 27.8712 51.125 26.0479C51.125 24.2246 51.8489 22.4759 53.1377 21.1862C54.4275 19.8974 56.1761 19.1734 57.9994 19.1734C59.8227 19.1734 61.5714 19.8974 62.8612 21.1862ZM33.9446 14.5859C35.4486 14.5863 36.9377 14.883 38.3269 15.4589C39.7162 16.0348 40.9784 16.8788 42.0415 17.9426C46.517 22.4157 46.517 29.6728 42.0415 34.146C39.8916 36.2942 36.9767 37.5009 33.9374 37.5009C30.8982 37.5009 27.9833 36.2942 25.8333 34.146C21.359 29.6716 21.359 22.4157 25.8333 17.9414C26.8965 16.8778 28.1588 16.0341 29.548 15.4584C30.9373 14.8826 32.4264 14.5862 33.9302 14.5859H33.9446ZM38.7992 21.1837C40.0883 22.4735 40.8125 24.2225 40.8125 26.0461C40.8125 27.8697 40.0883 29.6186 38.7992 30.9084C37.5094 32.1972 35.7607 32.9211 33.9374 32.9211C32.1141 32.9211 30.3654 32.1972 29.0757 30.9084C27.7869 29.6187 27.063 27.87 27.063 26.0467C27.063 24.2234 27.7869 22.4747 29.0757 21.1849C30.3654 19.8962 32.1141 19.1722 33.9374 19.1722C35.7607 19.1722 37.5094 19.8962 38.7992 21.1849V21.1837Z" fill="#E6E6E6"/>
</g>
<defs>
<clipPath id="clip0_2753_5836">
<rect width="102.083" height="50" fill="white" transform="translate(0.708984)"/>
</clipPath>
</defs>
</svg>
